<mxfile host="app.diagrams.net" modified="2024-03-21T13:31:32.774Z" agent="Mozilla/5.0 (Windows NT 10.0; Win64; x64; rv:124.0) Gecko/20100101 Firefox/124.0" etag="N2mPZNXUcyoImCUtS2HJ" version="24.0.7" type="github">
  <diagram name="Seite-1" id="FtbAKaaol-ACAXjwSM5C">
    <mxGraphModel dx="1195" dy="622" grid="1" gridSize="10" guides="1" tooltips="1" connect="1" arrows="1" fold="1" page="1" pageScale="1" pageWidth="827" pageHeight="1169" math="0" shadow="0">
      <root>
        <mxCell id="0" />
        <mxCell id="1" parent="0" />
        <mxCell id="j6koKk-nybVNEdSbmnx0-14" style="edgeStyle=orthogonalEdgeStyle;rounded=0;orthogonalLoop=1;jettySize=auto;html=1;exitX=1;exitY=0.25;exitDx=0;exitDy=0;entryX=0;entryY=0.25;entryDx=0;entryDy=0;fontFamily=Times New Roman;fontSize=16;" edge="1" parent="1" source="nl_c7YcEutgdqIVv1zfj-28" target="nl_c7YcEutgdqIVv1zfj-3">
          <mxGeometry relative="1" as="geometry">
            <Array as="points">
              <mxPoint x="430" y="110" />
              <mxPoint x="430" y="102" />
            </Array>
          </mxGeometry>
        </mxCell>
        <mxCell id="j6koKk-nybVNEdSbmnx0-15" style="edgeStyle=orthogonalEdgeStyle;rounded=0;orthogonalLoop=1;jettySize=auto;html=1;exitX=1;exitY=0.75;exitDx=0;exitDy=0;entryX=0;entryY=0.75;entryDx=0;entryDy=0;fontFamily=Times New Roman;fontSize=16;" edge="1" parent="1" source="nl_c7YcEutgdqIVv1zfj-28" target="nl_c7YcEutgdqIVv1zfj-3">
          <mxGeometry relative="1" as="geometry">
            <Array as="points">
              <mxPoint x="430" y="134" />
              <mxPoint x="430" y="142" />
            </Array>
          </mxGeometry>
        </mxCell>
        <mxCell id="j6koKk-nybVNEdSbmnx0-34" style="edgeStyle=orthogonalEdgeStyle;rounded=0;orthogonalLoop=1;jettySize=auto;html=1;exitX=0;exitY=0.5;exitDx=0;exitDy=0;entryX=0;entryY=0.5;entryDx=0;entryDy=0;fontFamily=Times New Roman;fontSize=16;" edge="1" parent="1" source="nl_c7YcEutgdqIVv1zfj-28" target="nl_c7YcEutgdqIVv1zfj-6">
          <mxGeometry relative="1" as="geometry" />
        </mxCell>
        <mxCell id="j6koKk-nybVNEdSbmnx0-36" value="&lt;font style=&quot;font-size: 16px;&quot;&gt;/rgb_image&lt;br style=&quot;font-size: 16px;&quot;&gt;&lt;/font&gt;" style="edgeLabel;html=1;align=center;verticalAlign=middle;resizable=0;points=[];fontFamily=Times New Roman;fontSize=16;" vertex="1" connectable="0" parent="j6koKk-nybVNEdSbmnx0-34">
          <mxGeometry x="-0.1017" y="2" relative="1" as="geometry">
            <mxPoint as="offset" />
          </mxGeometry>
        </mxCell>
        <mxCell id="nl_c7YcEutgdqIVv1zfj-28" value="Turtlebot3" style="whiteSpace=wrap;html=1;container=0;fillColor=#e1d5e7;strokeColor=#9673a6;fontSize=16;fontFamily=Times New Roman;" parent="1" vertex="1">
          <mxGeometry x="320" y="98.24000000000001" width="100" height="48" as="geometry" />
        </mxCell>
        <mxCell id="nl_c7YcEutgdqIVv1zfj-40" value="&lt;font style=&quot;font-size: 16px;&quot;&gt;/odometry&lt;/font&gt;" style="edgeLabel;html=1;align=center;verticalAlign=middle;resizable=0;points=[];container=0;fontSize=16;fontFamily=Times New Roman;" parent="1" vertex="1" connectable="0">
          <mxGeometry x="477" y="131" as="geometry" />
        </mxCell>
        <mxCell id="nl_c7YcEutgdqIVv1zfj-51" value="/laser_scan" style="text;html=1;align=center;verticalAlign=middle;resizable=0;points=[];autosize=1;strokeColor=none;fillColor=none;container=0;fontSize=16;fontFamily=Times New Roman;" parent="1" vertex="1">
          <mxGeometry x="430" y="96" width="90" height="30" as="geometry" />
        </mxCell>
        <mxCell id="nl_c7YcEutgdqIVv1zfj-52" value="/imu" style="text;html=1;align=center;verticalAlign=middle;resizable=0;points=[];autosize=1;strokeColor=none;fillColor=none;container=0;fontSize=16;fontFamily=Times New Roman;" parent="1" vertex="1">
          <mxGeometry x="451" y="77" width="50" height="30" as="geometry" />
        </mxCell>
        <mxCell id="nl_c7YcEutgdqIVv1zfj-11" value="Navigation" style="text;html=1;align=center;verticalAlign=middle;resizable=0;points=[];autosize=1;strokeColor=none;fillColor=none;container=0;fontSize=16;fontFamily=Times New Roman;" parent="1" vertex="1">
          <mxGeometry x="490.0029978681987" y="180" width="90" height="30" as="geometry" />
        </mxCell>
        <mxCell id="nl_c7YcEutgdqIVv1zfj-3" value="Generating Map while Localising the Robot relative to the Map" style="rounded=1;whiteSpace=wrap;html=1;dashed=1;container=0;fillColor=#e1d5e7;strokeColor=#9673a6;fontSize=16;fontFamily=Times New Roman;" parent="1" vertex="1">
          <mxGeometry x="525" y="82.09" width="158" height="80.31" as="geometry" />
        </mxCell>
        <mxCell id="nl_c7YcEutgdqIVv1zfj-63" style="edgeStyle=orthogonalEdgeStyle;rounded=0;orthogonalLoop=1;jettySize=auto;html=1;entryX=1;entryY=0.5;entryDx=0;entryDy=0;exitX=1;exitY=0.5;exitDx=0;exitDy=0;fontSize=16;fontFamily=Times New Roman;" parent="1" source="nl_c7YcEutgdqIVv1zfj-3" target="nl_c7YcEutgdqIVv1zfj-8" edge="1">
          <mxGeometry relative="1" as="geometry">
            <Array as="points">
              <mxPoint x="750" y="122" />
              <mxPoint x="750" y="355" />
            </Array>
          </mxGeometry>
        </mxCell>
        <mxCell id="j6koKk-nybVNEdSbmnx0-7" style="edgeStyle=orthogonalEdgeStyle;rounded=0;orthogonalLoop=1;jettySize=auto;html=1;entryX=0.5;entryY=1;entryDx=0;entryDy=0;exitX=0;exitY=0.5;exitDx=0;exitDy=0;fontFamily=Times New Roman;fontSize=16;" edge="1" parent="1" source="nl_c7YcEutgdqIVv1zfj-10" target="nl_c7YcEutgdqIVv1zfj-28">
          <mxGeometry relative="1" as="geometry">
            <Array as="points">
              <mxPoint x="370" y="240" />
            </Array>
          </mxGeometry>
        </mxCell>
        <mxCell id="j6koKk-nybVNEdSbmnx0-8" value="&lt;font style=&quot;font-size: 16px;&quot;&gt;/cmd_vel&lt;/font&gt;" style="edgeLabel;html=1;align=center;verticalAlign=middle;resizable=0;points=[];fontFamily=Times New Roman;fontSize=16;" vertex="1" connectable="0" parent="j6koKk-nybVNEdSbmnx0-7">
          <mxGeometry x="0.1857" relative="1" as="geometry">
            <mxPoint x="45" y="15" as="offset" />
          </mxGeometry>
        </mxCell>
        <mxCell id="nl_c7YcEutgdqIVv1zfj-10" value="Sending Motion Commands along a planned Path" style="rounded=1;whiteSpace=wrap;html=1;dashed=1;container=0;fillColor=#fff2cc;strokeColor=#d6b656;fontSize=16;fontFamily=Times New Roman;" parent="1" vertex="1">
          <mxGeometry x="470" y="210" width="130" height="60" as="geometry" />
        </mxCell>
        <mxCell id="nl_c7YcEutgdqIVv1zfj-4" value="SLAM" style="text;html=1;align=center;verticalAlign=middle;resizable=0;points=[];autosize=1;strokeColor=none;fillColor=none;container=0;fontSize=16;fontFamily=Times New Roman;" parent="1" vertex="1">
          <mxGeometry x="569.0042105263158" y="52.089999999999996" width="70" height="30" as="geometry" />
        </mxCell>
        <mxCell id="nl_c7YcEutgdqIVv1zfj-8" value="Evaluate Frontiers based on a recieved Costmap" style="rounded=1;whiteSpace=wrap;html=1;dashed=1;container=0;fillColor=#fad9d5;strokeColor=#ae4132;fontSize=16;fontFamily=Times New Roman;" parent="1" vertex="1">
          <mxGeometry x="436" y="332" width="174" height="48" as="geometry" />
        </mxCell>
        <mxCell id="nl_c7YcEutgdqIVv1zfj-9" value="Explorer" style="text;html=1;align=center;verticalAlign=middle;resizable=0;points=[];autosize=1;strokeColor=none;fillColor=none;container=0;fontSize=16;fontFamily=Times New Roman;" parent="1" vertex="1">
          <mxGeometry x="483" y="302" width="80" height="30" as="geometry" />
        </mxCell>
        <mxCell id="nl_c7YcEutgdqIVv1zfj-64" value="/fused_costmap" style="text;html=1;align=center;verticalAlign=middle;resizable=0;points=[];autosize=1;strokeColor=none;fillColor=none;rotation=0;container=0;fontSize=16;fontFamily=Times New Roman;" parent="1" vertex="1">
          <mxGeometry x="623" y="328" width="120" height="30" as="geometry" />
        </mxCell>
        <mxCell id="nl_c7YcEutgdqIVv1zfj-68" value="/position" style="text;html=1;align=center;verticalAlign=middle;resizable=0;points=[];autosize=1;strokeColor=none;fillColor=none;container=0;fontSize=16;fontFamily=Times New Roman;" parent="1" vertex="1">
          <mxGeometry x="676" y="115" width="80" height="30" as="geometry" />
        </mxCell>
        <mxCell id="nl_c7YcEutgdqIVv1zfj-81" style="edgeStyle=orthogonalEdgeStyle;rounded=0;orthogonalLoop=1;jettySize=auto;html=1;entryX=1;entryY=0.5;entryDx=0;entryDy=0;exitX=1;exitY=0.5;exitDx=0;exitDy=0;fontSize=16;fontFamily=Times New Roman;" parent="1" source="nl_c7YcEutgdqIVv1zfj-6" target="nl_c7YcEutgdqIVv1zfj-8" edge="1">
          <mxGeometry relative="1" as="geometry">
            <Array as="points">
              <mxPoint x="750" y="520" />
              <mxPoint x="750" y="355" />
            </Array>
          </mxGeometry>
        </mxCell>
        <mxCell id="nl_c7YcEutgdqIVv1zfj-82" value="/costmap" style="text;html=1;align=center;verticalAlign=middle;resizable=0;points=[];autosize=1;strokeColor=none;fillColor=none;fontSize=16;fontFamily=Times New Roman;" parent="1" vertex="1">
          <mxGeometry x="677" y="97" width="80" height="30" as="geometry" />
        </mxCell>
        <mxCell id="nl_c7YcEutgdqIVv1zfj-83" value="/costmap" style="text;html=1;align=center;verticalAlign=middle;resizable=0;points=[];autosize=1;strokeColor=none;fillColor=none;fontSize=16;fontFamily=Times New Roman;" parent="1" vertex="1">
          <mxGeometry x="674" y="514" width="80" height="30" as="geometry" />
        </mxCell>
        <mxCell id="nl_c7YcEutgdqIVv1zfj-76" style="edgeStyle=orthogonalEdgeStyle;rounded=0;orthogonalLoop=1;jettySize=auto;html=1;exitX=0;exitY=0.5;exitDx=0;exitDy=0;entryX=0;entryY=0.5;entryDx=0;entryDy=0;fontSize=16;fontFamily=Times New Roman;" parent="1" source="nl_c7YcEutgdqIVv1zfj-6" target="nl_c7YcEutgdqIVv1zfj-12" edge="1">
          <mxGeometry relative="1" as="geometry" />
        </mxCell>
        <mxCell id="nl_c7YcEutgdqIVv1zfj-78" style="edgeStyle=orthogonalEdgeStyle;rounded=0;orthogonalLoop=1;jettySize=auto;html=1;exitX=0;exitY=0.5;exitDx=0;exitDy=0;entryX=0;entryY=0.5;entryDx=0;entryDy=0;fontSize=16;fontFamily=Times New Roman;" parent="1" source="nl_c7YcEutgdqIVv1zfj-6" target="nl_c7YcEutgdqIVv1zfj-12" edge="1">
          <mxGeometry relative="1" as="geometry" />
        </mxCell>
        <mxCell id="nl_c7YcEutgdqIVv1zfj-6" value="" style="rounded=1;whiteSpace=wrap;html=1;dashed=1;fillColor=#b1ddf0;strokeColor=#10739e;fontSize=16;fontFamily=Times New Roman;" parent="1" vertex="1">
          <mxGeometry x="320" y="430" width="360" height="154" as="geometry" />
        </mxCell>
        <mxCell id="j6koKk-nybVNEdSbmnx0-27" style="edgeStyle=orthogonalEdgeStyle;rounded=0;orthogonalLoop=1;jettySize=auto;html=1;exitX=1;exitY=0.5;exitDx=0;exitDy=0;entryX=0;entryY=0.5;entryDx=0;entryDy=0;fontFamily=Times New Roman;fontSize=16;" edge="1" parent="1" source="nl_c7YcEutgdqIVv1zfj-15" target="nl_c7YcEutgdqIVv1zfj-21">
          <mxGeometry relative="1" as="geometry">
            <Array as="points">
              <mxPoint x="670" y="487" />
              <mxPoint x="670" y="540" />
              <mxPoint x="330" y="540" />
              <mxPoint x="330" y="559" />
            </Array>
          </mxGeometry>
        </mxCell>
        <mxCell id="nl_c7YcEutgdqIVv1zfj-15" value="" style="rounded=1;whiteSpace=wrap;html=1;dashed=1;fillColor=#bac8d3;strokeColor=#23445d;fontSize=16;fontFamily=Times New Roman;" parent="1" vertex="1">
          <mxGeometry x="330" y="454" width="330" height="66" as="geometry" />
        </mxCell>
        <mxCell id="nl_c7YcEutgdqIVv1zfj-7" value="Traversibility Evaluation" style="text;html=1;align=center;verticalAlign=middle;resizable=0;points=[];autosize=1;strokeColor=none;fillColor=none;fontSize=16;fontFamily=Times New Roman;" parent="1" vertex="1">
          <mxGeometry x="410" y="404" width="180" height="30" as="geometry" />
        </mxCell>
        <mxCell id="j6koKk-nybVNEdSbmnx0-32" style="edgeStyle=orthogonalEdgeStyle;rounded=0;orthogonalLoop=1;jettySize=auto;html=1;exitX=1;exitY=0.5;exitDx=0;exitDy=0;entryX=0;entryY=0.5;entryDx=0;entryDy=0;fontFamily=Times New Roman;fontSize=16;" edge="1" parent="1" source="nl_c7YcEutgdqIVv1zfj-12" target="nl_c7YcEutgdqIVv1zfj-13">
          <mxGeometry relative="1" as="geometry" />
        </mxCell>
        <mxCell id="nl_c7YcEutgdqIVv1zfj-12" value="Input Image" style="rounded=0;whiteSpace=wrap;html=1;fontSize=16;fontFamily=Times New Roman;" parent="1" vertex="1">
          <mxGeometry x="337" y="459" width="83" height="56" as="geometry" />
        </mxCell>
        <mxCell id="j6koKk-nybVNEdSbmnx0-33" style="edgeStyle=orthogonalEdgeStyle;rounded=0;orthogonalLoop=1;jettySize=auto;html=1;exitX=1;exitY=0.5;exitDx=0;exitDy=0;entryX=0;entryY=0.5;entryDx=0;entryDy=0;fontFamily=Times New Roman;fontSize=16;" edge="1" parent="1" source="nl_c7YcEutgdqIVv1zfj-13" target="nl_c7YcEutgdqIVv1zfj-19">
          <mxGeometry relative="1" as="geometry" />
        </mxCell>
        <mxCell id="nl_c7YcEutgdqIVv1zfj-13" value="Pixel-Wise-Segmentation" style="rounded=0;whiteSpace=wrap;html=1;fontSize=16;fontFamily=Times New Roman;" parent="1" vertex="1">
          <mxGeometry x="432" y="459" width="111.5" height="56" as="geometry" />
        </mxCell>
        <mxCell id="nl_c7YcEutgdqIVv1zfj-18" value="Image Segmentation" style="text;html=1;align=center;verticalAlign=middle;resizable=0;points=[];autosize=1;strokeColor=none;fillColor=none;fontSize=16;fontFamily=Times New Roman;" parent="1" vertex="1">
          <mxGeometry x="410" y="427" width="160" height="30" as="geometry" />
        </mxCell>
        <mxCell id="nl_c7YcEutgdqIVv1zfj-19" value="Segmented Output Image" style="rounded=0;whiteSpace=wrap;html=1;fontSize=16;fontFamily=Times New Roman;" parent="1" vertex="1">
          <mxGeometry x="556.5" y="459" width="95" height="56" as="geometry" />
        </mxCell>
        <mxCell id="nl_c7YcEutgdqIVv1zfj-27" value="" style="edgeStyle=orthogonalEdgeStyle;rounded=0;orthogonalLoop=1;jettySize=auto;html=1;fontSize=16;fontFamily=Times New Roman;" parent="1" source="nl_c7YcEutgdqIVv1zfj-21" target="nl_c7YcEutgdqIVv1zfj-26" edge="1">
          <mxGeometry relative="1" as="geometry" />
        </mxCell>
        <mxCell id="nl_c7YcEutgdqIVv1zfj-21" value="Depth Estimation" style="rounded=0;whiteSpace=wrap;html=1;fontSize=16;fontFamily=Times New Roman;" parent="1" vertex="1">
          <mxGeometry x="340" y="544" width="130" height="30" as="geometry" />
        </mxCell>
        <mxCell id="nl_c7YcEutgdqIVv1zfj-26" value="Projection on the Costmap" style="rounded=0;whiteSpace=wrap;html=1;fontSize=16;fontFamily=Times New Roman;" parent="1" vertex="1">
          <mxGeometry x="480" y="544" width="180" height="30" as="geometry" />
        </mxCell>
        <mxCell id="nl_c7YcEutgdqIVv1zfj-86" value="" style="shape=cross;whiteSpace=wrap;html=1;fillColor=#000000;strokeWidth=0;fontFamily=Times New Roman;fontSize=16;" parent="1" vertex="1">
          <mxGeometry x="740" y="358" width="7" height="7" as="geometry" />
        </mxCell>
        <mxCell id="nl_c7YcEutgdqIVv1zfj-87" value="" style="ellipse;whiteSpace=wrap;html=1;aspect=fixed;fontFamily=Times New Roman;fontSize=16;" parent="1" vertex="1">
          <mxGeometry x="748" y="353" width="4" height="4" as="geometry" />
        </mxCell>
        <mxCell id="j6koKk-nybVNEdSbmnx0-9" style="edgeStyle=orthogonalEdgeStyle;rounded=0;orthogonalLoop=1;jettySize=auto;html=1;exitX=1;exitY=0.5;exitDx=0;exitDy=0;entryX=0.016;entryY=0.507;entryDx=0;entryDy=0;entryPerimeter=0;fontFamily=Times New Roman;fontSize=16;" edge="1" parent="1" source="nl_c7YcEutgdqIVv1zfj-28" target="nl_c7YcEutgdqIVv1zfj-3">
          <mxGeometry relative="1" as="geometry" />
        </mxCell>
        <mxCell id="j6koKk-nybVNEdSbmnx0-19" value="" style="edgeStyle=orthogonalEdgeStyle;rounded=0;orthogonalLoop=1;jettySize=auto;html=1;exitX=0;exitY=0.5;exitDx=0;exitDy=0;entryX=0.5;entryY=1;entryDx=0;entryDy=0;fontFamily=Times New Roman;fontSize=16;" edge="1" parent="1" source="nl_c7YcEutgdqIVv1zfj-8" target="nl_c7YcEutgdqIVv1zfj-10">
          <mxGeometry relative="1" as="geometry">
            <mxPoint x="569.9999999999998" y="240" as="sourcePoint" />
            <Array as="points">
              <mxPoint x="390" y="356" />
              <mxPoint x="390" y="300" />
              <mxPoint x="535" y="300" />
            </Array>
          </mxGeometry>
        </mxCell>
        <mxCell id="j6koKk-nybVNEdSbmnx0-26" value="&lt;font style=&quot;font-size: 16px;&quot;&gt;/&lt;font style=&quot;font-size: 16px;&quot;&gt;goals&lt;/font&gt;&lt;/font&gt;" style="edgeLabel;html=1;align=center;verticalAlign=middle;resizable=0;points=[];fontFamily=Times New Roman;fontSize=16;" vertex="1" connectable="0" parent="j6koKk-nybVNEdSbmnx0-19">
          <mxGeometry x="0.1354" y="1" relative="1" as="geometry">
            <mxPoint x="-9" as="offset" />
          </mxGeometry>
        </mxCell>
        <mxCell id="j6koKk-nybVNEdSbmnx0-37" value="&lt;div&gt;Robot&lt;/div&gt;" style="text;html=1;align=center;verticalAlign=middle;resizable=0;points=[];autosize=1;strokeColor=none;fillColor=none;fontFamily=Times New Roman;fontSize=16;" vertex="1" parent="1">
          <mxGeometry x="340" y="68.24" width="60" height="30" as="geometry" />
        </mxCell>
      </root>
    </mxGraphModel>
  </diagram>
</mxfile>
